<svg version="1" xmlns="http://www.w3.org/2000/svg" width="744" height="744" viewBox="0 0 558.000000 558.000000"><path d="M0 279v279h558V0H0v279zM289.5 90.8c10.4 4.9 15.4 7.8 16.1 9.4 1.3 2.5 40.4 109.4 40.4 110.3 0 .3-9.1.5-20.3.5h-20.3L281 144.2c-13.4-36.7-24.6-67.3-24.8-67.9-.2-.7 3.8.7 9 3.1 5.1 2.4 16.1 7.6 24.3 11.4zm-14.1 56.6c14.1 38.4 25.6 70.1 25.6 70.4 0 .3 33.5.2 74.5-.2s74.5-.5 74.5-.2c0 .2-26.8 20.4-59.5 44.7-32.7 24.4-59.5 45-59.5 45.6 0 .7 10.2 34.4 22.6 74.9 12.4 40.5 22.4 73.8 22.2 73.9-.2.2-28-19.9-61.8-44.7-33.8-24.7-62-45.2-62.7-45.5-.6-.2-28.3 18.7-61.4 42.1-33.1 23.5-60.4 42.4-60.7 42.1-.3-.3 9-32.3 20.7-71.1s21-71.1 20.8-71.8c-.3-.6-27.3-21-60-45.1l-59.5-44 74.1-.8c40.8-.4 74.5-1.1 74.8-1.5.4-.4 11.2-31.1 24.2-68.2 25.9-74.2 24.8-71.2 25.3-70.8.1.2 11.8 31.8 25.8 70.2zm217.8 92.9c7.6 3.9 13.7 7.5 13.5 7.9-.1.4-26.3 19.7-58.2 42.8-31.9 23.2-58.1 42.4-58.3 42.8-.1.5 10.1 34.3 22.8 75.2 12.6 40.9 22.9 74.5 22.7 74.6-.1.1-11.5-5.6-25.3-12.7l-25-12.9-22-72.7c-12-40.1-21.9-73.4-21.9-74.1 0-.6 26.5-20.9 59-45.1l58.9-43.8 10.1 5.4c5.5 2.9 16.2 8.6 23.7 12.6zm-221.9 150c10.4 7.7 18.5 14.3 18 14.7-.8.8-103.8 72.9-106 74.3-1.4.9-46.5-21.3-46-22.6.6-1.8 113.1-81.6 114.1-81 .6.4 9.6 6.9 19.9 14.6z"/></svg>